<svg version="1" xmlns="http://www.w3.org/2000/svg" width="437.333" height="437.333" viewBox="0 0 328.000000 328.000000"><path d="M83.6 26.8c-.2.1-1.2.4-2.4.7-3.7.7-8.9 4.9-11.8 9.5l-2.9 4.5.1 122.5c.1 131.6-.3 123.6 5 130.2 1.1 1.5 4.1 3.7 6.5 5l4.4 2.3 80.5.1c88.1.1 84.4.3 90.8-5.9 7.2-7 6.7 3.3 6.6-130.7 0-66.3-.3-121.7-.6-123.2-1.3-5.5-5.5-10.5-11.3-13.3-3.9-1.9-7-1.9-84.3-2-44.2 0-80.5.1-80.6.3zm26 35c1 3.1 2.6 7.6 3.5 9.9 1.8 4.1 1.7 4.2-.3 4.8-2.1.7-4.3-.7-4.3-2.8 0-.7-1.7-1.2-4.2-1.3-3.5-.1-4.2.2-4.5 1.9-.2 1.5-1.1 2.1-3 2.2-2.5.2-2.7-.1-2.2-2.4.4-1.4 1.1-3 1.5-3.6.5-.5.9-1.5.9-2.1 0-.7.5-2.5 1.2-4.1 1.3-3.3 1.2-3 2.2-6.5.8-2.8 4.1-4.1 6.3-2.5.6.4 1.9 3.4 2.9 6.5zM106 82c1.3 1.1 1.9 2 1.5 2-.4 0 .1.8 1.2 1.7 2.6 2.3 4 5 4.6 8.9.4 2.6 0 3.4-1.8 4.4-1.3.7-3.3.9-4.6.5-2-.6-2.2-.5-1.1.6 1.9 2.1 1.4 2.9-1.8 2.9-2.9 0-4-1.3-2-2.5.6-.3 1-1.2 1-1.8 0-.7-.4-.6-1 .3-.7 1.1-1.5 1.2-3.7.4-4.7-1.6-4.4-6.2.9-13.4 2.4-3.3 4.3-6 4.4-6 .1 0 1.1.9 2.4 2zm58.6 42.8c-.6 1.1 2.7 8.3 6.2 13.4 1.7 2.4 5.6 6.8 8.7 9.8 11.9 11.5 15.6 15.6 16.7 18.7.7 1.8 1.5 3.3 1.8 3.3.6 0 .5 8.3-.1 11-.8 3-6.9 9.2-9.7 9.7-8.1 1.6-13.7 0-18.6-5.3-2-2.2-3.6-4.4-3.6-5.1 0-1.1-4-.6-4 .6-.1 1.4-5.7 6.9-8.7 8.4-7.8 4.1-17.4 1.8-22.1-5.3-2-3-2.3-4.4-1.9-9.5.5-7.7 3.2-12 12.7-20.5 4-3.6 8.4-7.6 9.8-9 3.8-4 8.9-12.2 10.3-16.8.6-2.3 1.6-4.2 2.1-4.2s.7.4.4.8zm.5 57.9c.4 7.5 1.3 10.4 4.6 15.4 2.7 4.1 9.9 8.4 15.4 9.3 4.6.7 6.9 1.6 6.9 2.7 0 .5-.3.9-.7 1-1.2.1-51.5.1-53.9 0-3-.1-2.6-2.8.5-2.9 6.3 0 16-3.7 16.1-6.1 0-.8.3-1.1.7-.8.9.9 5-4.9 6.4-9 1.3-4.1 1.7-6.1 1.8-9.1.1-2.6 2.1-3 2.2-.5zM225 227c-1 1.9-.9 2 1.5 1.4 3.4-.8 5.5 1.1 5.5 5 0 2.2-1.4 4.8-4.6 9-4.4 5.6-4.8 5.8-6.1 4-.7-1-2-2.7-2.8-3.6-3.2-3.8-4.6-6.8-4.7-9.8-.1-3.8 1.7-5.2 5.7-4.4 2.4.5 2.8.4 1.8-.7-2-2.1-1.5-2.9 1.7-2.9 2.8 0 3 .2 2 2zm-6.8 26.6c.7 1.5 2 2.1 4.8 2.2 3.3.2 3.9-.2 4.2-2 .2-1.5 1.1-2.3 3.1-2.5 3.3-.4 3.3-.2.3 7.4-1.3 3.4-2.1 6.4-1.8 6.7.3.3 0 .6-.6.6-.7 0-1.1.3-1 .7.1.5-.2 2.1-.7 3.6-.6 2.4-1.2 2.8-3.8 2.5-2.9-.3-3.3-.8-5.6-7.8-1.4-4.1-2.9-7.7-3.3-7.8-.5-.2-.8-1.7-.8-3.2 0-2.3.4-2.8 2.1-2.7 1.2.1 2.6 1.1 3.1 2.3z"/><path d="M103.2 64c-1.1 2.8-.7 4 1.4 4 1.5 0 1.7-1.4.4-4.5-.7-1.9-.8-1.9-1.8.5zM221.3 262.9c.6 1.7 1.5 2.7 1.9 2.5.5-.3.6-.9.3-1.4-.3-.5-.1-1.1.5-1.5 1.8-1.1 1-2.5-1.4-2.5-2.3 0-2.4.2-1.3 2.9z"/></svg>